<svg xmlns="http://www.w3.org/2000/svg" version="1.0" preserveAspectRatio="xMidYMid meet" viewBox="481.36 66.98 174.16 196.58">
<metadata>
Created by potrace 1.16, written by Peter Selinger 2001-2019
</metadata>
<g transform="translate(0.000000,433.000000) scale(0.100000,-0.100000)" fill="#000000" stroke="none">
<path d="M5959 3632 c-64 -42 -126 -108 -251 -272 -243 -317 -467 -562 -678 -740 -191 -162 -227 -201 -214 -233 12 -33 78 -40 254 -28 254 19 310 4 510 -128 69 -46 128 -87 133 -90 4 -4 -20 -27 -53 -51 -90 -65 -116 -114 -81 -149 29 -29 104 -27 227 5 80 21 116 25 185 22 106 -5 167 -32 309 -139 126 -93 241 -152 255 -130 2 5 -9 36 -25 69 -24 47 -58 86 -156 177 -69 65 -137 139 -152 164 -24 41 -27 56 -26 136 0 113 19 166 130 381 87 166 131 274 112 274 -51 0 -176 -121 -268 -257 -30 -45 -58 -82 -62 -83 -10 0 -181 142 -246 204 -80 77 -96 113 -96 221 -1 116 24 185 131 372 83 145 128 236 139 278 9 35 -19 33 -77 -3z m-332 -698 c14 -31 26 -70 27 -87 1 -31 0 -32 -39 -31 -22 0 -57 4 -78 8 l-37 7 41 79 c23 44 45 80 51 80 5 0 21 -25 35 -56z m18 -246 c60 -15 127 -52 265 -146 69 -46 127 -86 128 -87 12 -11 -187 -245 -209 -245 -12 0 -258 205 -292 243 -47 53 -67 105 -67 178 0 36 3 69 7 73 8 8 111 -2 168 -16z m-311 -97 c27 -60 33 -105 17 -116 -9 -5 -100 6 -173 21 -33 7 -36 27 -9 67 24 36 109 97 126 91 7 -3 25 -31 39 -63z m736 -392 c29 -69 37 -119 19 -120 -23 -2 -51 1 -117 13 l-64 11 6 30 c3 16 12 37 19 45 18 23 88 72 102 72 7 0 22 -23 35 -51z"/>
</g>
</svg>